<svg width="760" height="720" viewBox="0 0 760 720" fill="none" xmlns="http://www.w3.org/2000/svg">
<rect x="739" y="26" width="10" height="10" rx="5" fill="#C99856"/>
<path d="M99.6623 155.323C152.833 181.082 225.035 175.254 266.186 144.852C307.337 114.45 300.697 64.2016 248.683 45.2273C196.67 26.253 120.065 19.0307 82.16 55.6983C44.2554 92.3658 46.4914 129.564 99.6623 155.323Z" fill="#4F4E7A"/>
<path d="M139.23 467.028C208.387 523.818 306.904 511.354 377.297 444.899C447.69 378.444 433.575 274.469 351.94 231.496C270.306 188.523 180.288 190.051 113.873 253.625C47.4575 317.199 70.0731 410.239 139.23 467.028Z" fill="#454476"/>
<path d="M534.769 168.368C572.084 186.709 618.27 188.338 645.628 158.045C672.985 127.752 667.708 83.2594 633.84 58.6676C599.972 34.0758 552.87 45.7326 522.981 68.9905C493.091 92.2484 497.454 150.028 534.769 168.368Z" fill="#454476"/>
<path d="M672.631 374.5C719.057 408.211 719.091 463.532 688.635 510.899C658.178 558.265 606.483 601.865 570.419 641.798C534.356 681.73 467.699 691.99 418.299 656.12C368.899 620.25 361.201 556.132 402.296 519.722C443.391 483.312 476.548 428.409 520.511 388.823C564.475 349.237 626.205 340.79 672.631 374.5Z" fill="#454476"/>
<path d="M32.1519 257.407C46.5847 268.06 66.1875 265.645 77.3629 253.065C88.5383 240.486 86.7409 219.699 72.6217 211.852C58.5025 204.006 37.7055 201.022 27.4107 216.194C17.116 231.365 17.7191 246.753 32.1519 257.407Z" fill="#565587"/>
<path d="M96.6836 260.277C103.244 265.12 112.154 264.022 117.234 258.304C122.314 252.586 121.497 243.137 115.079 239.571C108.661 236.004 99.2079 234.648 94.5285 241.544C89.8491 248.44 90.1232 255.435 96.6836 260.277Z" fill="#565587"/>
<path d="M83.9972 655.628C125.996 687.631 193.035 680.229 235.891 640.737C278.746 601.246 272.797 530.848 219.789 497.834C166.781 464.821 105.394 469.152 67.8956 512.725C30.3977 556.299 41.9984 623.625 83.9972 655.628Z" fill="#51507D"/>
<path d="M431.776 224.929C458.768 247.461 497.221 242.516 524.696 216.148C552.17 189.781 546.661 148.526 514.798 131.475C482.936 114.425 447.801 115.031 421.879 140.255C395.956 165.48 404.783 202.396 431.776 224.929Z" fill="#51507D"/>
<path d="M710.998 159.315C722.387 165.001 736.491 165.495 744.855 156.08C753.219 146.665 751.622 132.848 741.287 125.22C730.952 117.592 716.565 121.224 707.43 128.455C698.295 135.686 699.608 153.629 710.998 159.315Z" fill="#565587"/>
<path d="M532.109 60.7178C566.162 86.6666 571.413 133.679 543.837 165.723C516.261 197.767 479.856 232.417 457.109 266.504C434.362 300.59 376.222 307.361 345.519 277.54C314.815 247.719 303.038 208.269 333.79 172.535C364.542 136.801 390.301 106.868 420.518 71.7543C450.736 36.6408 498.055 34.769 532.109 60.7178Z" fill="#565587"/>
<path d="M695.915 291.477C729.968 317.426 729.989 360.015 707.643 396.482C685.298 432.95 647.373 466.518 620.915 497.263C594.457 528.008 545.56 535.911 509.325 508.3C473.09 480.689 467.448 431.327 497.596 403.294C527.745 375.261 552.072 332.992 584.325 302.514C616.578 272.035 661.861 265.528 695.915 291.477Z" fill="#51507D"/>
<rect x="80" y="71" width="10" height="10" rx="5" fill="#C99856"/>
<rect x="101" y="169" width="10" height="10" rx="5" fill="#C99856"/>
<rect x="270" y="31" width="10" height="10" rx="5" fill="#C99856"/>
<rect x="260" y="213" width="10" height="10" rx="5" fill="#C99856"/>
<rect x="47" y="535" width="10" height="10" rx="5" fill="#C99856"/>
<rect x="202" y="494" width="10" height="10" rx="5" fill="#C99856"/>
<rect x="370" y="567" width="10" height="10" rx="5" fill="#C99856"/>
<rect x="541" y="455" width="10" height="10" rx="5" fill="#C99856"/>
<rect x="674" y="590" width="10" height="10" rx="5" fill="#C99856"/>
<rect x="52" y="290" width="10" height="10" rx="5" fill="#C99856"/>
<rect x="480" y="208" width="10" height="10" rx="5" fill="#C99856"/>
<rect x="569" y="48" width="10" height="10" rx="5" fill="#C99856"/>
<rect x="624" y="258" width="10" height="10" rx="5" fill="#C99856"/>
<path d="M369.167 392.084H410.834L432.303 323.375C435.321 313.723 435.952 303.482 434.141 293.532C432.33 283.583 428.132 274.221 421.907 266.25L394.928 231.719C394.343 230.97 393.596 230.364 392.742 229.948C391.888 229.531 390.95 229.314 390 229.314C389.05 229.314 388.113 229.531 387.259 229.948C386.405 230.364 385.658 230.97 385.073 231.719L358.094 266.25C351.869 274.221 347.671 283.583 345.86 293.532C344.049 303.482 344.68 313.723 347.698 323.375L369.167 392.084ZM369.167 392.084L337.917 412.917C337.917 412.917 317.084 371.25 353.542 345.209M369.167 423.334C369.167 444.167 390 454.584 390 454.584C390 454.584 410.834 444.167 410.834 423.334M430.948 345.209C467.407 371.25 446.573 412.917 446.573 412.917L415.323 392.084" stroke="#E8E8E8" stroke-width="5.33333" stroke-linecap="round" stroke-linejoin="round"/>
<path d="M390 329.584C384.475 329.584 379.176 327.389 375.269 323.482C371.362 319.575 369.167 314.276 369.167 308.75C369.167 303.225 371.362 297.926 375.269 294.019C379.176 290.112 384.475 287.917 390 287.917C395.526 287.917 400.825 290.112 404.732 294.019C408.639 297.926 410.834 303.225 410.834 308.75C410.834 314.276 408.639 319.575 404.732 323.482C400.825 327.389 395.526 329.584 390 329.584Z" stroke="#E8E8E8" stroke-width="5.33333" stroke-linecap="round" stroke-linejoin="round"/>
</svg>
