<svg width="562" height="445" viewBox="0 0 562 445" fill="none" xmlns="http://www.w3.org/2000/svg">
<rect width="562" height="445" rx="5" fill="#393C79"/>
<path d="M345.658 161.333H216.325C207.409 161.333 200.158 168.136 200.158 176.5V267.5C200.158 275.864 207.409 282.667 216.325 282.667H345.658C354.574 282.667 361.825 275.864 361.825 267.5V176.5C361.825 168.136 354.574 161.333 345.658 161.333ZM236.533 184.083C239.749 184.083 242.833 185.282 245.107 187.415C247.381 189.548 248.658 192.441 248.658 195.458C248.658 198.475 247.381 201.368 245.107 203.502C242.833 205.635 239.749 206.833 236.533 206.833C233.317 206.833 230.233 205.635 227.96 203.502C225.686 201.368 224.408 198.475 224.408 195.458C224.408 192.441 225.686 189.548 227.96 187.415C230.233 185.282 233.317 184.083 236.533 184.083ZM280.992 259.917H224.408L256.742 222L268.867 237.167L293.117 206.833L337.575 259.917H280.992Z" fill="white"/>
</svg>
