<svg width="728" height="799" viewBox="0 0 728 799" fill="none" xmlns="http://www.w3.org/2000/svg">
<path d="M15.0909 768H3.27273L37.4545 674.909H49.0909L83.2727 768H71.4545L43.6364 689.636H42.9091L15.0909 768ZM19.4545 731.636H67.0909V741.636H19.4545V731.636ZM126.5 768H97.7727V674.909H127.773C136.803 674.909 144.53 676.773 150.955 680.5C157.379 684.197 162.303 689.515 165.727 696.455C169.152 703.364 170.864 711.636 170.864 721.273C170.864 730.97 169.136 739.318 165.682 746.318C162.227 753.288 157.197 758.652 150.591 762.409C143.985 766.136 135.955 768 126.5 768ZM109.045 758H125.773C133.47 758 139.848 756.515 144.909 753.545C149.97 750.576 153.742 746.348 156.227 740.864C158.712 735.379 159.955 728.848 159.955 721.273C159.955 713.758 158.727 707.288 156.273 701.864C153.818 696.409 150.152 692.227 145.273 689.318C140.394 686.379 134.318 684.909 127.045 684.909H109.045V758ZM264.318 716.455V726.455H223.591V716.455H264.318ZM324.466 768H312.648L346.83 674.909H358.466L392.648 768H380.83L353.011 689.636H352.284L324.466 768ZM328.83 731.636H376.466V741.636H328.83V731.636ZM458.057 698.182C457.511 693.576 455.299 690 451.42 687.455C447.542 684.909 442.784 683.636 437.148 683.636C433.027 683.636 429.42 684.303 426.33 685.636C423.269 686.97 420.875 688.803 419.148 691.136C417.451 693.47 416.602 696.121 416.602 699.091C416.602 701.576 417.193 703.712 418.375 705.5C419.587 707.258 421.133 708.727 423.011 709.909C424.89 711.061 426.86 712.015 428.92 712.773C430.981 713.5 432.875 714.091 434.602 714.545L444.057 717.091C446.481 717.727 449.178 718.606 452.148 719.727C455.148 720.848 458.011 722.379 460.739 724.318C463.496 726.227 465.769 728.682 467.557 731.682C469.345 734.682 470.239 738.364 470.239 742.727C470.239 747.758 468.92 752.303 466.284 756.364C463.678 760.424 459.86 763.652 454.83 766.045C449.83 768.439 443.754 769.636 436.602 769.636C429.936 769.636 424.163 768.561 419.284 766.409C414.436 764.258 410.617 761.258 407.83 757.409C405.072 753.561 403.511 749.091 403.148 744H414.784C415.087 747.515 416.269 750.424 418.33 752.727C420.42 755 423.057 756.697 426.239 757.818C429.451 758.909 432.905 759.455 436.602 759.455C440.905 759.455 444.769 758.758 448.193 757.364C451.617 755.939 454.33 753.97 456.33 751.455C458.33 748.909 459.33 745.939 459.33 742.545C459.33 739.455 458.466 736.939 456.739 735C455.011 733.061 452.739 731.485 449.92 730.273C447.102 729.061 444.057 728 440.784 727.091L429.33 723.818C422.057 721.727 416.299 718.742 412.057 714.864C407.814 710.985 405.693 705.909 405.693 699.636C405.693 694.424 407.102 689.879 409.92 686C412.769 682.091 416.587 679.061 421.375 676.909C426.193 674.727 431.572 673.636 437.511 673.636C443.511 673.636 448.845 674.712 453.511 676.864C458.178 678.985 461.875 681.894 464.602 685.591C467.36 689.288 468.814 693.485 468.966 698.182H458.057ZM483.682 684.909V674.909H553.5V684.909H524.227V768H512.955V684.909H483.682ZM570.898 768V674.909H602.352C609.625 674.909 615.595 676.152 620.261 678.636C624.928 681.091 628.383 684.47 630.625 688.773C632.867 693.076 633.989 697.97 633.989 703.455C633.989 708.939 632.867 713.803 630.625 718.045C628.383 722.288 624.943 725.621 620.307 728.045C615.67 730.439 609.746 731.636 602.534 731.636H577.08V721.455H602.17C607.14 721.455 611.14 720.727 614.17 719.273C617.231 717.818 619.443 715.758 620.807 713.091C622.201 710.394 622.898 707.182 622.898 703.455C622.898 699.727 622.201 696.47 620.807 693.682C619.413 690.894 617.186 688.742 614.125 687.227C611.064 685.682 607.019 684.909 601.989 684.909H582.17V768H570.898ZM614.716 726.182L637.625 768H624.534L601.989 726.182H614.716ZM656.591 768H644.773L678.955 674.909H690.591L724.773 768H712.955L685.136 689.636H684.409L656.591 768ZM660.955 731.636H708.591V741.636H660.955V731.636Z" fill="white"/>
<path d="M364.144 241.942L394.644 205.842L389.844 200.142L352.244 227.242C351.544 227.142 350.844 227.042 350.144 227.042C343.244 227.042 337.444 232.042 336.344 238.642L328.344 244.442C320.944 244.442 314.644 249.242 312.444 255.942L300.344 264.642L324.844 288.342L334.544 276.842C339.644 274.742 343.544 270.342 344.744 264.842L353.344 254.642C359.344 253.342 363.744 248.242 364.144 241.942Z" fill="white"/>
<path d="M443.244 265.241L438.444 259.741L405.944 283.141C405.644 283.141 405.344 283.141 405.144 283.141C398.644 283.141 393.144 287.541 391.644 293.541L383.444 299.441C383.044 299.441 382.644 299.341 382.244 299.341C374.344 299.341 367.744 304.741 365.944 312.041L348.644 324.541L373.144 348.241L386.644 332.241C393.344 330.441 398.344 324.641 399.044 317.541L404.644 310.841C404.844 310.841 405.044 310.841 405.244 310.841C412.944 310.841 419.244 304.541 419.244 296.841C419.244 295.841 419.144 294.841 418.944 293.841L443.244 265.241Z" fill="white"/>
<path d="M674.544 8.94139C645.944 -22.5586 527.444 35.6414 469.744 83.0414C442.644 81.7414 414.944 90.1414 392.444 108.941C394.844 111.841 407.144 126.541 426.944 150.341L379.044 188.841L400.144 215.041L448.544 176.141C452.544 180.941 456.744 185.941 461.044 191.241C466.744 198.141 472.444 204.941 477.944 211.441L429.344 250.541L450.444 276.741L499.444 237.341C520.944 263.141 536.044 281.241 536.044 281.241C559.744 261.541 573.144 234.141 575.844 205.641C629.144 154.141 703.644 40.9414 674.544 8.94139Z" fill="#455CFF"/>
<path d="M319.444 107.641L352.144 101.041L319.444 94.4413L312.844 61.8413L306.244 94.4413L273.644 101.041L306.244 107.641L312.844 140.341L319.444 107.641Z" fill="white"/>
<path d="M526.144 377.141L549.444 372.341L526.144 367.641L521.444 344.341L516.644 367.641L493.344 372.341L516.644 377.141L521.444 400.441L526.144 377.141Z" fill="white"/>
<path d="M296.044 215.441C299.137 215.441 301.644 212.934 301.644 209.841C301.644 206.748 299.137 204.241 296.044 204.241C292.951 204.241 290.444 206.748 290.444 209.841C290.444 212.934 292.951 215.441 296.044 215.441Z" fill="white"/>
<path d="M454.144 325.242C457.237 325.242 459.744 322.734 459.744 319.642C459.744 316.549 457.237 314.042 454.144 314.042C451.051 314.042 448.544 316.549 448.544 319.642C448.544 322.734 451.051 325.242 454.144 325.242Z" fill="white"/>
<path d="M222.044 146.442C222.044 147.942 220.744 149.242 219.244 149.242C217.744 149.242 216.444 147.942 216.444 146.442C216.444 144.942 217.744 143.642 219.244 143.642C220.844 143.642 222.044 144.942 222.044 146.442Z" fill="white"/>
<path d="M397.544 362.242C399.091 362.242 400.344 360.988 400.344 359.442C400.344 357.895 399.091 356.642 397.544 356.642C395.998 356.642 394.744 357.895 394.744 359.442C394.744 360.988 395.998 362.242 397.544 362.242Z" fill="white"/>
<path d="M643.144 33.4416C659.544 51.5416 629.144 104.542 607.144 124.442C607.144 124.442 592.544 108.342 576.144 90.2416C559.744 72.1416 549.244 60.6416 547.744 58.9416C574.744 41.6416 626.744 15.3416 643.144 33.4416Z" fill="white"/>
<path d="M627.944 255.742C631.037 255.742 633.544 253.234 633.544 250.142C633.544 247.049 631.037 244.542 627.944 244.542C624.851 244.542 622.344 247.049 622.344 250.142C622.344 253.234 624.851 255.742 627.944 255.742Z" fill="white"/>
<path d="M696.344 192.941C699.437 192.941 701.944 190.434 701.944 187.341C701.944 184.248 699.437 181.741 696.344 181.741C693.251 181.741 690.744 184.248 690.744 187.341C690.744 190.434 693.251 192.941 696.344 192.941Z" fill="white"/>
<path d="M498.944 11.3416C502.037 11.3416 504.544 8.83439 504.544 5.7416C504.544 2.64881 502.037 0.141602 498.944 0.141602C495.851 0.141602 493.344 2.64881 493.344 5.7416C493.344 8.83439 495.851 11.3416 498.944 11.3416Z" fill="white"/>
<path d="M413.744 53.3415C413.744 54.8415 412.444 56.1415 410.944 56.1415C409.444 56.1415 408.144 54.8415 408.144 53.3415C408.144 51.8415 409.444 50.5415 410.944 50.5415C412.444 50.5415 413.744 51.8415 413.744 53.3415Z" fill="white"/>
<path d="M654.844 140.842C654.844 142.342 653.544 143.642 652.044 143.642C650.544 143.642 649.244 142.342 649.244 140.842C649.244 139.342 650.544 138.042 652.044 138.042C653.544 138.042 654.844 139.242 654.844 140.842Z" fill="white"/>
<path d="M683.944 201.342C683.944 202.842 682.644 204.142 681.144 204.142C679.644 204.142 678.344 202.842 678.344 201.342C678.344 199.842 679.644 198.542 681.144 198.542C682.744 198.542 683.944 199.842 683.944 201.342Z" fill="white"/>
<path d="M701.944 219.342C701.944 220.842 700.644 222.142 699.144 222.142C697.644 222.142 696.344 220.842 696.344 219.342C696.344 217.842 697.644 216.542 699.144 216.542C700.644 216.542 701.944 217.742 701.944 219.342Z" fill="white"/>
<path d="M376.744 71.3415C376.744 72.8415 375.444 74.1415 373.944 74.1415C372.444 74.1415 371.144 72.8415 371.144 71.3415C371.144 69.8415 372.444 68.5415 373.944 68.5415C375.444 68.5415 376.744 69.7415 376.744 71.3415Z" fill="white"/>
<path d="M530.044 483.541C530.044 483.541 526.844 491.541 521.544 502.041L478.544 512.941C479.244 509.741 479.644 506.341 479.644 502.941C479.644 478.141 459.544 458.141 434.844 458.141C430.444 458.141 426.244 458.741 422.244 459.941C418.144 445.941 405.244 435.741 389.944 435.741C388.944 435.741 387.944 435.841 387.044 435.841C386.744 430.341 385.844 423.341 384.244 414.641C384.244 401.441 376.644 389.941 365.544 384.441L378.244 324.041L317.744 323.041L330.044 264.541L268.244 263.541C262.544 252.941 251.444 245.741 238.544 245.741C238.044 245.741 237.644 245.741 237.144 245.741C239.744 237.141 238.244 227.641 232.244 220.541C227.744 215.141 221.444 212.041 214.844 211.241C215.744 207.641 216.244 203.941 216.244 200.041C216.244 175.241 196.144 155.241 171.444 155.241C168.144 155.241 164.944 155.641 161.844 156.241L179.844 108.041C190.844 103.941 199.144 101.641 199.144 101.641C176.844 97.7414 153.244 110.941 132.244 124.841C130.444 126.441 128.744 127.841 127.144 129.141C126.744 129.541 126.244 129.941 125.844 130.241C124.044 131.741 122.444 133.141 120.944 134.541C8.04403 235.041 -5.15597 407.641 92.544 524.141C191.944 642.541 368.344 658.141 486.944 559.141C490.744 556.241 494.544 552.141 499.644 547.441C515.744 528.141 531.544 506.141 530.044 483.541Z" fill="white"/>
</svg>
