<svg width="751" height="800" viewBox="0 0 751 800" fill="none" xmlns="http://www.w3.org/2000/svg">
<path d="M24.1364 769H3.04545L35.1818 675.909H60.5455L92.6364 769H71.5455L48.2273 697.182H47.5L24.1364 769ZM22.8182 732.409H72.6364V747.773H22.8182V732.409ZM136.841 769H103.841V675.909H137.114C146.477 675.909 154.538 677.773 161.295 681.5C168.053 685.197 173.25 690.515 176.886 697.455C180.553 704.394 182.386 712.697 182.386 722.364C182.386 732.061 180.553 740.394 176.886 747.364C173.25 754.333 168.023 759.682 161.205 763.409C154.417 767.136 146.295 769 136.841 769ZM123.523 752.136H136.023C141.841 752.136 146.735 751.106 150.705 749.045C154.705 746.955 157.705 743.727 159.705 739.364C161.735 734.97 162.75 729.303 162.75 722.364C162.75 715.485 161.735 709.864 159.705 705.5C157.705 701.136 154.72 697.924 150.75 695.864C146.78 693.803 141.886 692.773 136.068 692.773H123.523V752.136ZM269.727 714.773V730.136H227.273V714.773H269.727ZM332.261 769H311.17L343.307 675.909H368.67L400.761 769H379.67L356.352 697.182H355.625L332.261 769ZM330.943 732.409H380.761V747.773H330.943V732.409ZM460.341 702.682C459.977 699.015 458.417 696.167 455.659 694.136C452.902 692.106 449.159 691.091 444.432 691.091C441.22 691.091 438.508 691.545 436.295 692.455C434.083 693.333 432.386 694.561 431.205 696.136C430.053 697.712 429.477 699.5 429.477 701.5C429.417 703.167 429.765 704.621 430.523 705.864C431.311 707.106 432.386 708.182 433.75 709.091C435.114 709.97 436.689 710.742 438.477 711.409C440.265 712.045 442.174 712.591 444.205 713.045L452.568 715.045C456.629 715.955 460.356 717.167 463.75 718.682C467.144 720.197 470.083 722.061 472.568 724.273C475.053 726.485 476.977 729.091 478.341 732.091C479.735 735.091 480.447 738.53 480.477 742.409C480.447 748.106 478.992 753.045 476.114 757.227C473.265 761.379 469.144 764.606 463.75 766.909C458.386 769.182 451.917 770.318 444.341 770.318C436.826 770.318 430.28 769.167 424.705 766.864C419.159 764.561 414.826 761.152 411.705 756.636C408.614 752.091 406.992 746.47 406.841 739.773H425.886C426.098 742.894 426.992 745.5 428.568 747.591C430.174 749.652 432.311 751.212 434.977 752.273C437.674 753.303 440.72 753.818 444.114 753.818C447.447 753.818 450.341 753.333 452.795 752.364C455.28 751.394 457.205 750.045 458.568 748.318C459.932 746.591 460.614 744.606 460.614 742.364C460.614 740.273 459.992 738.515 458.75 737.091C457.538 735.667 455.75 734.455 453.386 733.455C451.053 732.455 448.189 731.545 444.795 730.727L434.659 728.182C426.811 726.273 420.614 723.288 416.068 719.227C411.523 715.167 409.265 709.697 409.295 702.818C409.265 697.182 410.765 692.258 413.795 688.045C416.856 683.833 421.053 680.545 426.386 678.182C431.72 675.818 437.78 674.636 444.568 674.636C451.477 674.636 457.508 675.818 462.659 678.182C467.841 680.545 471.871 683.833 474.75 688.045C477.629 692.258 479.114 697.136 479.205 702.682H460.341ZM490.17 692.136V675.909H566.625V692.136H538.125V769H518.67V692.136H490.17ZM579.216 769V675.909H615.943C622.973 675.909 628.973 677.167 633.943 679.682C638.943 682.167 642.746 685.697 645.352 690.273C647.989 694.818 649.307 700.167 649.307 706.318C649.307 712.5 647.973 717.818 645.307 722.273C642.64 726.697 638.777 730.091 633.716 732.455C628.686 734.818 622.595 736 615.443 736H590.852V720.182H612.261C616.019 720.182 619.14 719.667 621.625 718.636C624.11 717.606 625.958 716.061 627.17 714C628.413 711.939 629.034 709.379 629.034 706.318C629.034 703.227 628.413 700.621 627.17 698.5C625.958 696.379 624.095 694.773 621.58 693.682C619.095 692.561 615.958 692 612.17 692H598.898V769H579.216ZM629.489 726.636L652.625 769H630.898L608.261 726.636H629.489ZM679.261 769H658.17L690.307 675.909H715.67L747.761 769H726.67L703.352 697.182H702.625L679.261 769ZM677.943 732.409H727.761V747.773H677.943V732.409Z" fill="white"/>
<path d="M376.144 241.942L406.644 205.842L401.844 200.142L364.244 227.242C363.544 227.142 362.844 227.042 362.144 227.042C355.244 227.042 349.444 232.042 348.344 238.642L340.344 244.442C332.944 244.442 326.644 249.242 324.444 255.942L312.344 264.642L336.844 288.342L346.544 276.842C351.644 274.742 355.544 270.342 356.744 264.842L365.344 254.642C371.344 253.342 375.744 248.242 376.144 241.942Z" fill="white"/>
<path d="M455.245 265.241L450.445 259.741L417.945 283.141C417.645 283.141 417.345 283.141 417.145 283.141C410.645 283.141 405.145 287.541 403.645 293.541L395.445 299.441C395.045 299.441 394.645 299.341 394.245 299.341C386.345 299.341 379.745 304.741 377.945 312.041L360.645 324.541L385.145 348.241L398.645 332.241C405.345 330.441 410.345 324.641 411.045 317.541L416.645 310.841C416.845 310.841 417.045 310.841 417.245 310.841C424.945 310.841 431.245 304.541 431.245 296.841C431.245 295.841 431.145 294.841 430.945 293.841L455.245 265.241Z" fill="white"/>
<path d="M686.544 8.94139C657.944 -22.5586 539.444 35.6414 481.744 83.0414C454.644 81.7414 426.944 90.1414 404.444 108.941C406.844 111.841 419.144 126.541 438.944 150.341L391.044 188.841L412.144 215.041L460.544 176.141C464.544 180.941 468.744 185.941 473.044 191.241C478.744 198.141 484.444 204.941 489.944 211.441L441.344 250.541L462.444 276.741L511.444 237.341C532.944 263.141 548.044 281.241 548.044 281.241C571.744 261.541 585.144 234.141 587.844 205.641C641.144 154.141 715.644 40.9414 686.544 8.94139Z" fill="#455CFF"/>
<path d="M331.445 107.641L364.145 101.041L331.445 94.4413L324.845 61.8413L318.245 94.4413L285.645 101.041L318.245 107.641L324.845 140.341L331.445 107.641Z" fill="white"/>
<path d="M538.144 377.141L561.444 372.341L538.144 367.641L533.444 344.341L528.644 367.641L505.344 372.341L528.644 377.141L533.444 400.441L538.144 377.141Z" fill="white"/>
<path d="M308.044 215.441C311.137 215.441 313.644 212.934 313.644 209.841C313.644 206.748 311.137 204.241 308.044 204.241C304.952 204.241 302.444 206.748 302.444 209.841C302.444 212.934 304.952 215.441 308.044 215.441Z" fill="white"/>
<path d="M466.144 325.242C469.237 325.242 471.744 322.734 471.744 319.642C471.744 316.549 469.237 314.042 466.144 314.042C463.051 314.042 460.544 316.549 460.544 319.642C460.544 322.734 463.051 325.242 466.144 325.242Z" fill="white"/>
<path d="M234.044 146.442C234.044 147.942 232.744 149.242 231.244 149.242C229.744 149.242 228.444 147.942 228.444 146.442C228.444 144.942 229.744 143.642 231.244 143.642C232.844 143.642 234.044 144.942 234.044 146.442Z" fill="white"/>
<path d="M409.544 362.242C411.091 362.242 412.344 360.988 412.344 359.442C412.344 357.895 411.091 356.642 409.544 356.642C407.998 356.642 406.744 357.895 406.744 359.442C406.744 360.988 407.998 362.242 409.544 362.242Z" fill="white"/>
<path d="M655.144 33.4416C671.544 51.5416 641.144 104.542 619.144 124.442C619.144 124.442 604.544 108.342 588.144 90.2416C571.744 72.1416 561.244 60.6416 559.744 58.9416C586.744 41.6416 638.744 15.3416 655.144 33.4416Z" fill="white"/>
<path d="M639.944 255.742C643.037 255.742 645.544 253.234 645.544 250.142C645.544 247.049 643.037 244.542 639.944 244.542C636.851 244.542 634.344 247.049 634.344 250.142C634.344 253.234 636.851 255.742 639.944 255.742Z" fill="white"/>
<path d="M708.344 192.941C711.437 192.941 713.944 190.434 713.944 187.341C713.944 184.248 711.437 181.741 708.344 181.741C705.251 181.741 702.744 184.248 702.744 187.341C702.744 190.434 705.251 192.941 708.344 192.941Z" fill="white"/>
<path d="M510.944 11.3416C514.037 11.3416 516.544 8.83439 516.544 5.7416C516.544 2.64881 514.037 0.141602 510.944 0.141602C507.851 0.141602 505.344 2.64881 505.344 5.7416C505.344 8.83439 507.851 11.3416 510.944 11.3416Z" fill="white"/>
<path d="M425.745 53.3415C425.745 54.8415 424.445 56.1415 422.945 56.1415C421.445 56.1415 420.145 54.8415 420.145 53.3415C420.145 51.8415 421.445 50.5415 422.945 50.5415C424.445 50.5415 425.745 51.8415 425.745 53.3415Z" fill="white"/>
<path d="M666.844 140.842C666.844 142.342 665.544 143.642 664.044 143.642C662.544 143.642 661.244 142.342 661.244 140.842C661.244 139.342 662.544 138.042 664.044 138.042C665.544 138.042 666.844 139.242 666.844 140.842Z" fill="white"/>
<path d="M695.944 201.342C695.944 202.842 694.644 204.142 693.144 204.142C691.644 204.142 690.344 202.842 690.344 201.342C690.344 199.842 691.644 198.542 693.144 198.542C694.744 198.542 695.944 199.842 695.944 201.342Z" fill="white"/>
<path d="M713.944 219.342C713.944 220.842 712.644 222.142 711.144 222.142C709.644 222.142 708.344 220.842 708.344 219.342C708.344 217.842 709.644 216.542 711.144 216.542C712.644 216.542 713.944 217.742 713.944 219.342Z" fill="white"/>
<path d="M388.745 71.3415C388.745 72.8415 387.445 74.1415 385.945 74.1415C384.445 74.1415 383.145 72.8415 383.145 71.3415C383.145 69.8415 384.445 68.5415 385.945 68.5415C387.445 68.5415 388.745 69.7415 388.745 71.3415Z" fill="white"/>
<path d="M542.044 483.541C542.044 483.541 538.844 491.541 533.544 502.041L490.544 512.941C491.244 509.741 491.644 506.341 491.644 502.941C491.644 478.141 471.544 458.141 446.844 458.141C442.444 458.141 438.244 458.741 434.244 459.941C430.144 445.941 417.244 435.741 401.944 435.741C400.944 435.741 399.944 435.841 399.044 435.841C398.744 430.341 397.844 423.341 396.244 414.641C396.244 401.441 388.644 389.941 377.544 384.441L390.244 324.041L329.744 323.041L342.044 264.541L280.244 263.541C274.544 252.941 263.444 245.741 250.544 245.741C250.044 245.741 249.644 245.741 249.144 245.741C251.744 237.141 250.244 227.641 244.244 220.541C239.744 215.141 233.444 212.041 226.844 211.241C227.744 207.641 228.244 203.941 228.244 200.041C228.244 175.241 208.144 155.241 183.444 155.241C180.144 155.241 176.944 155.641 173.844 156.241L191.844 108.041C202.844 103.941 211.144 101.641 211.144 101.641C188.844 97.7414 165.244 110.941 144.244 124.841C142.444 126.441 140.744 127.841 139.144 129.141C138.744 129.541 138.244 129.941 137.844 130.241C136.044 131.741 134.444 133.141 132.944 134.541C20.044 235.041 6.84403 407.641 104.544 524.141C203.944 642.541 380.344 658.141 498.944 559.141C502.744 556.241 506.544 552.141 511.644 547.441C527.744 528.141 543.544 506.141 542.044 483.541Z" fill="white"/>
</svg>
