<svg width="750" height="857" viewBox="0 0 750 857" fill="none" xmlns="http://www.w3.org/2000/svg">
<path d="M26.05 821H0.7L35.15 730H61.15L95.6 821H70.25L64.4 804.75H31.9L26.05 821ZM37.75 787.85H58.55L48.15 757.3L37.75 787.85ZM152.795 730C162.588 730 169.998 732.557 175.025 737.67C180.138 742.697 182.695 750.107 182.695 759.9V791.1C182.695 800.893 180.138 808.347 175.025 813.46C169.998 818.487 162.588 821 152.795 821H102.095V730H152.795ZM159.295 759.9C159.295 752.1 155.395 748.2 147.595 748.2H125.495V802.8H147.595C155.395 802.8 159.295 798.9 159.295 791.1V759.9Z" fill="white"/>
<path d="M333.05 821H307.7L342.15 730H368.15L402.6 821H377.25L371.4 804.75H338.9L333.05 821ZM344.75 787.85H365.55L355.15 757.3L344.75 787.85ZM406.365 802.15C430.112 803.45 446.188 804.1 454.595 804.1C456.588 804.1 458.148 803.537 459.275 802.41C460.488 801.197 461.095 799.593 461.095 797.6V785.9H431.195C422.095 785.9 415.465 783.863 411.305 779.79C407.232 775.63 405.195 769 405.195 759.9V756C405.195 746.9 407.232 740.313 411.305 736.24C415.465 732.08 422.095 730 431.195 730H476.825V748.2H436.395C431.195 748.2 428.595 750.8 428.595 756V758.6C428.595 763.8 431.195 766.4 436.395 766.4H459.795C468.288 766.4 474.528 768.393 478.515 772.38C482.502 776.367 484.495 782.607 484.495 791.1V797.6C484.495 806.093 482.502 812.333 478.515 816.32C474.528 820.307 468.288 822.3 459.795 822.3C455.375 822.3 450.695 822.213 445.755 822.04L433.795 821.52C424.955 821.087 415.812 820.48 406.365 819.7V802.15ZM533.91 821H510.51V748.2H483.21V730H561.21V748.2H533.91V821ZM570.325 730H624.925C634.025 730 640.612 732.08 644.685 736.24C648.845 740.313 650.925 746.9 650.925 756V767.7C650.925 774.893 649.712 780.483 647.285 784.47C644.945 788.457 641.175 791.1 635.975 792.4L652.225 821H626.875L611.925 793.7H593.725V821H570.325V730ZM627.525 756C627.525 750.8 624.925 748.2 619.725 748.2H593.725V775.5H619.725C624.925 775.5 627.525 772.9 627.525 767.7V756ZM680.14 821H654.79L689.24 730H715.24L749.69 821H724.34L718.49 804.75H685.99L680.14 821ZM691.84 787.85H712.64L702.24 757.3L691.84 787.85Z" fill="white"/>
<path d="M222.9 784.6V766.4H276.2V784.6H222.9Z" fill="white"/>
<circle cx="192.407" cy="252.735" r="44.8476" fill="white"/>
<path d="M229.889 272.921L415.523 493.231" stroke="white" stroke-width="9"/>
<path d="M328.304 396.576C427.81 515.163 508.476 611.297 508.476 611.297C389.889 710.803 213.09 695.335 113.584 576.748C14.0776 458.161 29.5455 281.362 148.132 181.856C148.132 181.856 228.798 277.99 328.304 396.576Z" fill="white"/>
<path d="M159.619 182.463C139.123 199.661 145.749 191.53 148.023 239.287C125.225 193.926 135.18 193.456 153.286 177.532C174.304 163.599 197.839 150.393 220.175 154.336C220.175 154.336 180.114 165.265 159.619 182.463Z" fill="white"/>
<path d="M202.498 156.314L179.122 218.788L149.727 186.373L202.498 156.314Z" fill="white"/>
<path d="M208.117 260.32C195.784 270.669 177.881 269.637 168.129 258.016C158.378 246.394 160.47 228.584 172.803 218.235C185.137 207.887 203.04 208.919 212.791 220.54C222.543 232.162 220.45 249.972 208.117 260.32Z" fill="white"/>
<path d="M225.641 305.624C213.308 315.973 195.405 314.941 185.653 303.319C175.902 291.698 177.994 273.888 190.327 263.539C202.66 253.19 220.563 254.222 230.315 265.844C240.067 277.465 237.974 295.276 225.641 305.624Z" fill="white"/>
<path d="M500.734 555.458C500.734 580.226 480.655 600.305 455.887 600.305C431.118 600.305 411.039 580.226 411.039 555.458C411.039 530.689 431.118 510.61 455.887 510.61C480.655 510.61 500.734 530.689 500.734 555.458Z" fill="white"/>
<path d="M444.675 521.822C444.675 540.398 429.616 555.458 411.039 555.458C392.463 555.458 377.403 540.398 377.403 521.822C377.403 503.245 392.463 488.186 411.039 488.186C429.616 488.186 444.675 503.245 444.675 521.822Z" fill="white"/>
<path d="M414.403 460.156C426.175 524.743 399.343 493.792 380.767 493.792C362.19 493.792 347.131 478.733 347.131 460.156C347.131 441.58 362.19 426.521 380.767 426.521C399.343 426.521 414.403 441.58 414.403 460.156Z" fill="white"/>
<path d="M420.009 368.83C420.009 378.118 412.479 385.648 403.191 385.648C393.902 385.648 386.373 378.118 386.373 368.83C386.373 359.542 393.902 352.012 403.191 352.012C412.479 352.012 420.009 359.542 420.009 368.83Z" fill="white"/>
<path d="M366.191 313.892C366.191 323.18 358.662 330.71 349.374 330.71C340.085 330.71 332.556 323.18 332.556 313.892C332.556 304.603 340.085 297.074 349.374 297.074C358.662 297.074 366.191 304.603 366.191 313.892Z" fill="white"/>
<path d="M385.252 293.66C385.252 301.4 378.977 307.675 371.237 307.675C363.497 307.675 357.222 301.4 357.222 293.66C357.222 285.92 363.497 279.645 371.237 279.645C378.977 279.645 385.252 285.92 385.252 293.66Z" fill="white"/>
<path d="M440.19 349.719C440.19 357.46 433.915 363.734 426.175 363.734C418.435 363.734 412.16 357.46 412.16 349.719C412.16 341.979 418.435 335.704 426.175 335.704C433.915 335.704 440.19 341.979 440.19 349.719Z" fill="white"/>
<path d="M351.137 317.149L334.798 394.617L268.648 315.854L351.137 317.149Z" fill="white"/>
<path d="M399.348 376.572L383.009 454.04L316.859 375.277L399.348 376.572Z" fill="white"/>
<path d="M410.963 252.773L415.75 258.46L345.879 341.001L321.344 317.255L410.963 252.773Z" fill="white"/>
<path d="M459.477 312.277L464.309 317.778L394.09 401.035L369.555 377.289L459.477 312.277Z" fill="white"/>
<path d="M333.904 114.388L340.545 147.202H327.263L333.904 114.388Z" fill="white"/>
<path d="M294.662 153.629L327.476 146.989V160.27L294.662 153.629Z" fill="white"/>
<path d="M333.904 192.871L327.263 160.057H340.545L333.904 192.871Z" fill="white"/>
<path d="M373.146 153.629L340.331 160.27V146.989L373.146 153.629Z" fill="white"/>
<path d="M327.364 147.089H340.444V160.17H327.364V147.089Z" fill="white"/>
<path d="M542.445 396.928L547.188 420.366H537.702L542.445 396.928Z" fill="white"/>
<path d="M514.415 424.957L537.854 420.214V429.701L514.415 424.957Z" fill="white"/>
<path d="M542.445 452.987L537.702 429.549H547.188L542.445 452.987Z" fill="white"/>
<path d="M570.475 424.957L547.036 429.701V420.214L570.475 424.957Z" fill="white"/>
<path d="M537.773 420.286H547.117V429.629H537.773V420.286Z" fill="white"/>
<circle cx="317.086" cy="262.386" r="5.60595" fill="white"/>
<circle cx="475.173" cy="372.259" r="5.60595" fill="white"/>
<path d="M243.086 199.038C243.086 200.586 241.831 201.841 240.283 201.841C238.735 201.841 237.48 200.586 237.48 199.038C237.48 197.49 238.735 196.235 240.283 196.235C241.831 196.235 243.086 197.49 243.086 199.038Z" fill="white"/>
<circle cx="418.553" cy="412.066" r="2.80297" fill="white"/>
<path d="M571.419 175.824C611.064 223.39 604.642 294.089 557.076 333.734C557.08 333.73 521.706 291.299 482.061 243.732C442.416 196.166 417.097 165.788 413.508 161.481C461.075 121.836 531.774 128.257 571.419 175.824Z" fill="#7075EB"/>
<path d="M695.604 61.5057C725.759 94.7405 644.49 215.181 591.103 263.62C591.108 263.616 564.2 233.97 534.045 200.736C503.889 167.501 484.631 146.275 481.902 143.266C535.288 94.8267 665.449 28.2708 695.604 61.5057Z" fill="#7075EB"/>
<path d="M664.215 85.9982C680.616 104.074 650.222 157.051 628.24 176.996C628.242 176.995 613.608 160.87 597.207 142.795C580.806 124.719 570.332 113.175 568.847 111.538C595.745 94.2571 647.814 67.9223 664.215 85.9982Z" fill="white"/>
<rect x="510.668" y="254.535" width="33.6357" height="77.3994" transform="rotate(51.2018 510.668 254.535)" fill="#7075EB"/>
<rect x="460.376" y="192.867" width="33.6357" height="77.3994" transform="rotate(51.2018 460.376 192.867)" fill="#7075EB"/>
<circle cx="648.957" cy="302.719" r="5.60595" fill="white"/>
<circle cx="717.35" cy="239.932" r="5.60595" fill="white"/>
<circle cx="520.021" cy="58.3022" r="5.60595" fill="white"/>
<path d="M434.811 105.951C434.811 107.499 433.556 108.754 432.008 108.754C430.46 108.754 429.205 107.499 429.205 105.951C429.205 104.403 430.46 103.148 432.008 103.148C433.556 103.148 434.811 104.403 434.811 105.951Z" fill="white"/>
<path d="M675.867 193.405C675.867 194.953 674.612 196.208 673.064 196.208C671.516 196.208 670.261 194.953 670.261 193.405C670.261 191.856 671.516 190.602 673.064 190.602C674.612 190.602 675.867 191.856 675.867 193.405Z" fill="white"/>
<path d="M705.016 253.949C705.016 255.497 703.761 256.752 702.213 256.752C700.665 256.752 699.41 255.497 699.41 253.949C699.41 252.401 700.665 251.146 702.213 251.146C703.761 251.146 705.016 252.401 705.016 253.949Z" fill="white"/>
<path d="M722.956 271.888C722.956 273.436 721.701 274.691 720.153 274.691C718.605 274.691 717.35 273.436 717.35 271.888C717.35 270.34 718.605 269.085 720.153 269.085C721.701 269.085 722.956 270.34 722.956 271.888Z" fill="white"/>
<path d="M397.811 123.893C397.811 125.441 396.556 126.696 395.008 126.696C393.46 126.696 392.205 125.441 392.205 123.893C392.205 122.345 393.46 121.09 395.008 121.09C396.556 121.09 397.811 122.345 397.811 123.893Z" fill="white"/>
<path d="M508.975 597.747C491.732 618.984 499.884 612.118 452 609.762C497.482 633.384 508.149 611.161 513.919 604.309C519.69 597.457 541.131 558.144 537.177 535C537.177 535 526.219 576.51 508.975 597.747Z" fill="white"/>
<path d="M535.194 553.317L472.554 577.538L505.055 607.997L535.194 553.317Z" fill="white"/>
</svg>
