<svg width="686" height="804" viewBox="0 0 686 804" fill="none" xmlns="http://www.w3.org/2000/svg">
<path d="M26.05 768H0.7L35.15 677H61.15L95.6 768H70.25L64.4 751.75H31.9L26.05 768ZM37.75 734.85H58.55L48.15 704.3L37.75 734.85ZM152.795 677C162.588 677 169.998 679.557 175.025 684.67C180.138 689.697 182.695 697.107 182.695 706.9V738.1C182.695 747.893 180.138 755.347 175.025 760.46C169.998 765.487 162.588 768 152.795 768H102.095V677H152.795ZM159.295 706.9C159.295 699.1 155.395 695.2 147.595 695.2H125.495V749.8H147.595C155.395 749.8 159.295 745.9 159.295 738.1V706.9ZM191.759 731.6V713.4H245.059V731.6H191.759ZM269.038 768H243.688L278.138 677H304.138L338.588 768H313.238L307.388 751.75H274.888L269.038 768ZM280.738 734.85H301.538L291.138 704.3L280.738 734.85ZM342.353 749.15C366.1 750.45 382.177 751.1 390.583 751.1C392.577 751.1 394.137 750.537 395.263 749.41C396.477 748.197 397.083 746.593 397.083 744.6V732.9H367.183C358.083 732.9 351.453 730.863 347.293 726.79C343.22 722.63 341.183 716 341.183 706.9V703C341.183 693.9 343.22 687.313 347.293 683.24C351.453 679.08 358.083 677 367.183 677H412.813V695.2H372.383C367.183 695.2 364.583 697.8 364.583 703V705.6C364.583 710.8 367.183 713.4 372.383 713.4H395.783C404.277 713.4 410.517 715.393 414.503 719.38C418.49 723.367 420.483 729.607 420.483 738.1V744.6C420.483 753.093 418.49 759.333 414.503 763.32C410.517 767.307 404.277 769.3 395.783 769.3C391.363 769.3 386.683 769.213 381.743 769.04L369.783 768.52C360.943 768.087 351.8 767.48 342.353 766.7V749.15ZM469.898 768H446.498V695.2H419.198V677H497.198V695.2H469.898V768ZM506.314 677H560.914C570.014 677 576.6 679.08 580.674 683.24C584.834 687.313 586.914 693.9 586.914 703V714.7C586.914 721.893 585.7 727.483 583.274 731.47C580.934 735.457 577.164 738.1 571.964 739.4L588.214 768H562.864L547.914 740.7H529.714V768H506.314V677ZM563.514 703C563.514 697.8 560.914 695.2 555.714 695.2H529.714V722.5H555.714C560.914 722.5 563.514 719.9 563.514 714.7V703ZM616.128 768H590.778L625.228 677H651.228L685.678 768H660.328L654.478 751.75H621.978L616.128 768ZM627.828 734.85H648.628L638.228 704.3L627.828 734.85Z" fill="white"/>
<path d="M339.144 241.942L369.644 205.842L364.844 200.142L327.244 227.242C326.544 227.142 325.844 227.042 325.144 227.042C318.244 227.042 312.444 232.042 311.344 238.642L303.344 244.442C295.944 244.442 289.644 249.242 287.444 255.942L275.344 264.642L299.844 288.342L309.544 276.842C314.644 274.742 318.544 270.342 319.744 264.842L328.344 254.642C334.344 253.342 338.744 248.242 339.144 241.942Z" fill="white"/>
<path d="M418.244 265.241L413.444 259.741L380.944 283.141C380.644 283.141 380.344 283.141 380.144 283.141C373.644 283.141 368.144 287.541 366.644 293.541L358.444 299.441C358.044 299.441 357.644 299.341 357.244 299.341C349.344 299.341 342.744 304.741 340.944 312.041L323.644 324.541L348.144 348.241L361.644 332.241C368.344 330.441 373.344 324.641 374.044 317.541L379.644 310.841C379.844 310.841 380.044 310.841 380.244 310.841C387.944 310.841 394.244 304.541 394.244 296.841C394.244 295.841 394.144 294.841 393.944 293.841L418.244 265.241Z" fill="white"/>
<path d="M649.544 8.94139C620.944 -22.5586 502.444 35.6414 444.744 83.0414C417.644 81.7414 389.944 90.1414 367.444 108.941C369.844 111.841 382.144 126.541 401.944 150.341L354.044 188.841L375.144 215.041L423.544 176.141C427.544 180.941 431.744 185.941 436.044 191.241C441.744 198.141 447.444 204.941 452.944 211.441L404.344 250.541L425.444 276.741L474.444 237.341C495.944 263.141 511.044 281.241 511.044 281.241C534.744 261.541 548.144 234.141 550.844 205.641C604.144 154.141 678.644 40.9414 649.544 8.94139Z" fill="#455CFF"/>
<path d="M294.444 107.641L327.144 101.041L294.444 94.4413L287.844 61.8413L281.244 94.4413L248.644 101.041L281.244 107.641L287.844 140.341L294.444 107.641Z" fill="white"/>
<path d="M501.144 377.141L524.444 372.341L501.144 367.641L496.444 344.341L491.644 367.641L468.344 372.341L491.644 377.141L496.444 400.441L501.144 377.141Z" fill="white"/>
<path d="M271.044 215.441C274.137 215.441 276.644 212.934 276.644 209.841C276.644 206.748 274.137 204.241 271.044 204.241C267.951 204.241 265.444 206.748 265.444 209.841C265.444 212.934 267.951 215.441 271.044 215.441Z" fill="white"/>
<path d="M429.144 325.242C432.237 325.242 434.744 322.734 434.744 319.642C434.744 316.549 432.237 314.042 429.144 314.042C426.051 314.042 423.544 316.549 423.544 319.642C423.544 322.734 426.051 325.242 429.144 325.242Z" fill="white"/>
<path d="M197.044 146.442C197.044 147.942 195.744 149.242 194.244 149.242C192.744 149.242 191.444 147.942 191.444 146.442C191.444 144.942 192.744 143.642 194.244 143.642C195.844 143.642 197.044 144.942 197.044 146.442Z" fill="white"/>
<path d="M372.544 362.242C374.091 362.242 375.344 360.988 375.344 359.442C375.344 357.895 374.091 356.642 372.544 356.642C370.998 356.642 369.744 357.895 369.744 359.442C369.744 360.988 370.998 362.242 372.544 362.242Z" fill="white"/>
<path d="M618.144 33.4416C634.544 51.5416 604.144 104.542 582.144 124.442C582.144 124.442 567.544 108.342 551.144 90.2416C534.744 72.1416 524.244 60.6416 522.744 58.9416C549.744 41.6416 601.744 15.3416 618.144 33.4416Z" fill="white"/>
<path d="M602.944 255.742C606.037 255.742 608.544 253.234 608.544 250.142C608.544 247.049 606.037 244.542 602.944 244.542C599.851 244.542 597.344 247.049 597.344 250.142C597.344 253.234 599.851 255.742 602.944 255.742Z" fill="white"/>
<path d="M671.344 192.941C674.437 192.941 676.944 190.434 676.944 187.341C676.944 184.248 674.437 181.741 671.344 181.741C668.251 181.741 665.744 184.248 665.744 187.341C665.744 190.434 668.251 192.941 671.344 192.941Z" fill="white"/>
<path d="M473.944 11.3416C477.037 11.3416 479.544 8.83439 479.544 5.7416C479.544 2.64881 477.037 0.141602 473.944 0.141602C470.851 0.141602 468.344 2.64881 468.344 5.7416C468.344 8.83439 470.851 11.3416 473.944 11.3416Z" fill="white"/>
<path d="M388.744 53.3415C388.744 54.8415 387.444 56.1415 385.944 56.1415C384.444 56.1415 383.144 54.8415 383.144 53.3415C383.144 51.8415 384.444 50.5415 385.944 50.5415C387.444 50.5415 388.744 51.8415 388.744 53.3415Z" fill="white"/>
<path d="M629.844 140.842C629.844 142.342 628.544 143.642 627.044 143.642C625.544 143.642 624.244 142.342 624.244 140.842C624.244 139.342 625.544 138.042 627.044 138.042C628.544 138.042 629.844 139.242 629.844 140.842Z" fill="white"/>
<path d="M658.944 201.342C658.944 202.842 657.644 204.142 656.144 204.142C654.644 204.142 653.344 202.842 653.344 201.342C653.344 199.842 654.644 198.542 656.144 198.542C657.744 198.542 658.944 199.842 658.944 201.342Z" fill="white"/>
<path d="M676.944 219.342C676.944 220.842 675.644 222.142 674.144 222.142C672.644 222.142 671.344 220.842 671.344 219.342C671.344 217.842 672.644 216.542 674.144 216.542C675.644 216.542 676.944 217.742 676.944 219.342Z" fill="white"/>
<path d="M351.744 71.3415C351.744 72.8415 350.444 74.1415 348.944 74.1415C347.444 74.1415 346.144 72.8415 346.144 71.3415C346.144 69.8415 347.444 68.5415 348.944 68.5415C350.444 68.5415 351.744 69.7415 351.744 71.3415Z" fill="white"/>
<path d="M505.044 483.541C505.044 483.541 501.844 491.541 496.544 502.041L453.544 512.941C454.244 509.741 454.644 506.341 454.644 502.941C454.644 478.141 434.544 458.141 409.844 458.141C405.444 458.141 401.244 458.741 397.244 459.941C393.144 445.941 380.244 435.741 364.944 435.741C363.944 435.741 362.944 435.841 362.044 435.841C361.744 430.341 360.844 423.341 359.244 414.641C359.244 401.441 351.644 389.941 340.544 384.441L353.244 324.041L292.744 323.041L305.044 264.541L243.244 263.541C237.544 252.941 226.444 245.741 213.544 245.741C213.044 245.741 212.644 245.741 212.144 245.741C214.744 237.141 213.244 227.641 207.244 220.541C202.744 215.141 196.444 212.041 189.844 211.241C190.744 207.641 191.244 203.941 191.244 200.041C191.244 175.241 171.144 155.241 146.444 155.241C143.144 155.241 139.944 155.641 136.844 156.241L154.844 108.041C165.844 103.941 174.144 101.641 174.144 101.641C151.844 97.7414 128.244 110.941 107.244 124.841C105.444 126.441 103.744 127.841 102.144 129.141C101.744 129.541 101.244 129.941 100.844 130.241C99.044 131.741 97.444 133.141 95.944 134.541C-16.956 235.041 -30.156 407.641 67.544 524.141C166.944 642.541 343.344 658.141 461.944 559.141C465.744 556.241 469.544 552.141 474.644 547.441C490.744 528.141 506.544 506.141 505.044 483.541Z" fill="white"/>
</svg>
