<?xml version="1.0" encoding="UTF-8"?>
<svg id="Capa_1" data-name="Capa 1" xmlns="http://www.w3.org/2000/svg" viewBox="0 0 674.95 782.05">
  <defs>
    <style>
      .cls-1 {
        fill: #fff;
      }

      .cls-2 {
        fill: #455cff;
      }
    </style>
  </defs>
  <g>
    <path class="cls-1" d="M337.2,241.98l30.54-36.08-4.79-5.69-37.6,27.05c-.7-.11-1.4-.18-2.13-.18-6.93,0-12.67,5.03-13.8,11.64l-8.05,5.79s-.01,0-.02,0c-7.42,0-13.71,4.81-15.94,11.48l-12.09,8.7,24.54,23.75,9.74-11.5c5.12-2.05,9-6.54,10.19-12.03l8.6-10.16c5.93-1.37,10.41-6.51,10.8-12.76Z"/>
    <path class="cls-1" d="M416.31,265.22l-4.83-5.5-32.46,23.47c-.28-.02-.56-.04-.84-.04-6.5,0-11.95,4.43-13.54,10.44l-8.21,5.93c-.41-.03-.82-.06-1.24-.06-7.88,0-14.48,5.43-16.3,12.74l-17.34,12.53,24.54,23.75,13.48-15.98c6.67-1.8,11.71-7.58,12.36-14.65l5.65-6.69c.2,0,.4,.03,.6,.03,7.74,0,14.02-6.27,14.02-14.02,0-1.02-.11-2.01-.32-2.96l24.44-28.98Z"/>
    <path class="cls-2" d="M647.6,8.95c-28.6-31.52-147.12,26.71-204.83,74.12-27.11-1.33-54.78,7.11-77.27,25.85,2.41,2.9,14.66,17.59,34.47,41.36l-47.92,38.53,21.08,26.21,48.38-38.9c4.01,4.81,8.18,9.82,12.55,15.05,5.74,6.89,11.4,13.68,16.87,20.24l-48.58,39.06,21.08,26.21,49.05-39.43c21.52,25.81,36.61,43.92,36.61,43.92,23.67-19.73,37.14-47.14,39.83-75.56,53.23-51.46,127.78-164.61,98.7-196.66Z"/>
    <polygon class="cls-1" points="292.5 107.68 325.14 101.07 292.5 94.47 285.9 61.83 279.3 94.47 246.66 101.07 279.3 107.68 285.9 140.31 292.5 107.68"/>
    <polygon class="cls-1" points="499.16 377.12 522.47 372.4 499.16 367.68 494.44 344.37 489.72 367.68 466.41 372.4 489.72 377.12 494.44 400.43 499.16 377.12"/>
    <circle class="cls-1" cx="269.08" cy="209.83" r="5.61"/>
    <circle class="cls-1" cx="427.17" cy="319.7" r="5.61"/>
    <path class="cls-1" d="M195.08,146.48c0,1.55-1.26,2.8-2.8,2.8s-2.8-1.26-2.8-2.8,1.26-2.8,2.8-2.8,2.8,1.26,2.8,2.8Z"/>
    <circle class="cls-1" cx="370.55" cy="359.51" r="2.8"/>
    <path class="cls-1" d="M616.21,33.44c16.4,18.08-13.99,71.05-35.98,91,0,0-14.63-16.13-31.03-34.2-16.4-18.08-26.88-29.62-28.36-31.26,26.9-17.28,78.97-43.62,95.37-25.54Z"/>
    <circle class="cls-1" cx="600.95" cy="250.16" r="5.61"/>
    <circle class="cls-1" cx="669.35" cy="187.37" r="5.61"/>
    <circle class="cls-1" cx="472.02" cy="5.74" r="5.61"/>
    <path class="cls-1" d="M386.81,53.39c0,1.55-1.26,2.8-2.8,2.8s-2.8-1.25-2.8-2.8,1.26-2.8,2.8-2.8,2.8,1.25,2.8,2.8Z"/>
    <path class="cls-1" d="M627.86,140.85c0,1.55-1.26,2.8-2.8,2.8s-2.8-1.25-2.8-2.8,1.26-2.8,2.8-2.8,2.8,1.25,2.8,2.8Z"/>
    <path class="cls-1" d="M657.01,201.39c0,1.55-1.26,2.8-2.8,2.8s-2.8-1.26-2.8-2.8,1.26-2.8,2.8-2.8,2.8,1.26,2.8,2.8Z"/>
    <path class="cls-1" d="M674.95,219.33c0,1.55-1.25,2.8-2.8,2.8s-2.8-1.26-2.8-2.8,1.26-2.8,2.8-2.8,2.8,1.26,2.8,2.8Z"/>
    <path class="cls-1" d="M349.81,71.33c0,1.55-1.26,2.8-2.8,2.8s-2.8-1.25-2.8-2.8,1.26-2.8,2.8-2.8,2.8,1.26,2.8,2.8Z"/>
    <path class="cls-1" d="M503.08,483.56s-3.17,8.02-8.46,18.5l-43.03,10.88c.74-3.23,1.14-6.59,1.14-10.04,0-24.77-20.08-44.85-44.85-44.85-4.36,0-8.57,.63-12.56,1.8-4.07-13.99-16.98-24.22-32.29-24.22-.99,0-1.97,.05-2.94,.14-.3-5.54-1.18-12.49-2.76-21.18,0-13.22-7.63-24.66-18.73-30.15l12.74-60.41-60.54-.95,12.33-58.47-61.81-.97c-5.66-10.6-16.83-17.82-29.69-17.82-.47,0-.94,.02-1.41,.04,2.57-8.64,1.06-18.11-4.93-25.24-4.52-5.39-10.79-8.49-17.45-9.25,.91-3.57,1.4-7.31,1.4-11.17,0-24.77-20.08-44.85-44.85-44.85-3.29,0-6.5,.37-9.6,1.04l18.04-48.22c11-4.1,19.32-6.37,19.32-6.37-22.34-3.94-45.87,9.26-66.89,23.2-1.8,1.58-3.52,3.01-5.13,4.35,0,0-.02-.03-.02-.03-.44,.37-.87,.75-1.31,1.12-1.8,1.49-3.44,2.88-4.9,4.25-112.88,100.39-126.08,273.03-28.34,389.51,99.37,118.42,275.8,134,394.39,34.96,3.79-2.87,7.57-7,12.69-11.67,16.17-19.35,31.88-41.29,30.43-63.92Z"/>
  </g>
  <g>
    <path class="cls-1" d="M59.16,766l-2.32,16.05H30.8l23.36-129.3h27.64l23.36,129.3h-26.04l-2.32-16.05h-17.66Zm2.85-20.51h11.95l-5.89-45.83-6.06,45.83Z"/>
    <path class="cls-1" d="M178.29,762.08c0,14.27-5.35,19.97-20.15,19.97h-45.83v-129.3h50.65c10.17,0,15.34,6.24,15.34,15.69v93.63Zm-40.31-86.68v84h12.13c2.14,0,2.5-.71,2.5-2.68v-78.83c0-1.61-.54-2.5-2.32-2.5h-12.31Z"/>
    <path class="cls-1" d="M213.06,708.75h37.99l-1.78,21.22h-37.99l1.78-21.22Z"/>
    <path class="cls-1" d="M308.83,766l-2.32,16.05h-26.04l23.36-129.3h27.64l23.36,129.3h-26.04l-2.32-16.05h-17.66Zm2.85-20.51h11.95l-5.89-45.83-6.06,45.83Z"/>
    <path class="cls-1" d="M363.94,782.05l-4.64-24.08h27.82c2.32,0,3.03-.71,3.03-2.68v-23.54c0-3.57-1.25-3.75-4.82-3.75h-13.38c-7.67,0-14.45-1.78-14.45-14.62v-43.87c0-10.17,5.35-16.76,17.48-16.76h35.67l4.46,24.08h-29.25c-2.14,0-3.21,.89-3.21,2.85v23.54c0,2.67,1.25,3.39,3.92,3.39h16.23c8.2,0,12.84,3.57,12.84,13.2v42.62c0,14.27-4.99,19.62-19.8,19.62h-31.92Z"/>
    <path class="cls-1" d="M475.58,652.75l6.42,24.08h-17.3v105.22h-26.39v-105.22h-17.3l6.78-24.08h47.8Z"/>
    <path class="cls-1" d="M555.65,729.44c0,5.71-4.1,11.41-11.59,11.41l13.55,41.2h-26.75l-12.48-41.2h-3.39v41.2h-25.86v-129.3h49.04c12.13,0,17.48,6.6,17.48,16.76v59.92Zm-40.66-54.04v44.59h12.66c1.96,0,2.5-.71,2.5-2.67v-39.24c0-1.61-.71-2.68-2.5-2.68h-12.66Z"/>
    <path class="cls-1" d="M590.25,766l-2.32,16.05h-26.04l23.36-129.3h27.64l23.36,129.3h-26.04l-2.32-16.05h-17.66Zm2.85-20.51h11.95l-5.88-45.83-6.06,45.83Z"/>
  </g>
</svg>